<?xml version="1.0" encoding="utf-8"?>
<!-- Generator: Adobe Illustrator 26.5.0, SVG Export Plug-In . SVG Version: 6.00 Build 0)  -->
<svg version="1.1" id="Layer_1" xmlns="http://www.w3.org/2000/svg" xmlns:xlink="http://www.w3.org/1999/xlink" x="0px" y="0px"
	 viewBox="0 0 54.31 18.33" style="enable-background:new 0 0 54.31 18.33;" xml:space="preserve">
<style type="text/css">
	.st0{fill:#F7F7FB;}
	.st1{fill:#5DC6CA;}
</style>
<g>
	<g>
		<path class="st0" d="M7.59,8.98H2.89v3.72h5.26v2.9H0V0h7.88v2.87H2.89V6.1h4.71V8.98z"/>
	</g>
	<path class="st0" d="M27.52,0H23.2h-0.91h-2.54v15.6h3.45V7.88h4.32c3.32,0,4.28-1.76,4.28-3.92C31.8,1.79,30.84,0,27.52,0z
		 M27.95,5.13H23.2V2.79h4.75c0.99,0,1.19,0.52,1.19,1.17C29.14,4.61,28.94,5.13,27.95,5.13z"/>
	<g>
		<path class="st1" d="M40.55,4.93L38.75,0h-4.87l-5.64,15.6h4.02l2.51-7.09h3.84l0.6,1.71c0,0.01,0.01,0.02,0.01,0.02l0.42,1.19
			h0.01 M35.21,6.58l0.79-2.42c0.22-0.66,0.42-1.52,0.62-2.2h0.04c0.2,0.68,0.44,1.52,0.68,2.2l0.84,2.42H35.21z"/>
	</g>
	<g>
		<path class="st1" d="M14.5,11.89h0.42c2.09,0,3.78-1.69,3.78-3.78V3.72C18.7,1.63,17.01,0,14.92,0H8.77v2.87h5.06
			c1.17,0,2.12,0.98,2.12,2.15v2c0,1.17-0.95,1.94-2.12,1.94H8.77v2.93h2.35l4.63,6.44h3.39L14.5,11.89z"/>
	</g>
	<g>
		<path class="st0" d="M47.22,12.86c-2.68,0-4.85-1.78-4.85-3.97s2.17-3.97,4.85-3.97c1.86,0,3.46,0.87,4.27,2.14l2.82-0.93
			c-1.24-2.38-4.03-4.05-7.28-4.05c-4.4,0-7.97,3.05-7.97,6.81c0,3.76,3.57,6.81,7.97,6.81c2.29,0,4.35-0.83,5.8-2.15l-2.16-1.87
			C49.79,12.41,48.57,12.86,47.22,12.86z"/>
	</g>
</g>
</svg>
